<?xml version="1.0" encoding="UTF-8"?>
<svg version="1.1" xmlns="http://www.w3.org/2000/svg" width="512" height="512">
<path d="M0 0 C0.70476471 0.00248749 1.40952942 0.00497498 2.13565063 0.00753784 C12.76263853 0.06548708 22.95884914 0.41042954 33.25 3.3125 C34.04841309 3.53292969 34.84682617 3.75335938 35.66943359 3.98046875 C71.33673762 14.13849544 100.45251246 36.27807712 119.25 68.3125 C131.08538533 89.6872059 136.69767361 111.97000887 136.625 136.375 C136.62412384 137.0979425 136.62324768 137.82088501 136.62234497 138.56573486 C136.50410263 168.24906191 127.04532531 197.04209723 108.25 220.3125 C107.81316895 220.8600293 107.37633789 221.40755859 106.92626953 221.97167969 C100.09587353 230.47391653 92.90170871 237.65497947 84.25 244.3125 C84.90742188 244.580625 85.56484375 244.84875 86.2421875 245.125 C92.7530012 247.8069612 99.23141993 250.56401092 105.6875 253.375 C106.45626465 253.70306641 107.2250293 254.03113281 108.01708984 254.36914062 C114.0774951 257.02961207 119.30537432 259.97528034 122.51953125 266.0625 C124.55109663 272.32015594 124.33409037 279.77460768 121.6875 285.8125 C118.81661305 290.66224831 114.52286655 293.55487782 109.25 295.3125 C100.18654297 296.2574966 93.45734723 294.35563914 85.25 290.6875 C83.04951387 289.75934372 80.84634486 288.83752405 78.640625 287.921875 C77.55974609 287.47263672 76.47886719 287.02339844 75.36523438 286.56054688 C22.04398128 265.19861539 -38.42021247 270.79646417 -90.37109375 292.88671875 C-110.9364554 301.94461312 -129.88432101 314.88542715 -146.36328125 330.1171875 C-147.93955353 331.56704841 -149.54115328 332.98990103 -151.16796875 334.3828125 C-182.14168035 361.07240183 -210.0238975 407.62318734 -214.08984375 448.75 C-214.2895791 455.26936197 -213.78433527 459.90812384 -209.30859375 464.9296875 C-202.3261158 471.70155706 -193.41325472 471.60941204 -184.12341309 471.55059814 C-182.57169537 471.55293666 -182.57169537 471.55293666 -180.98862982 471.55532241 C-177.54117815 471.55826503 -174.09391756 471.54712742 -170.64648438 471.53613281 C-168.1671804 471.53560829 -165.68787606 471.53604492 -163.20857239 471.53736877 C-157.87867819 471.53870036 -152.54883233 471.53440745 -147.21894836 471.52576447 C-138.78929078 471.51267997 -130.35970953 471.52030353 -121.93005371 471.53118896 C-119.04166424 471.5346665 -116.15327462 471.53801164 -113.26488495 471.54131699 C-112.18235376 471.54256399 -112.18235376 471.54256399 -111.07795325 471.54383619 C-102.8760265 471.55300701 -94.67409911 471.55796763 -86.47216797 471.56103516 C-85.72299274 471.56132091 -84.97381751 471.56160665 -84.20194 471.56190106 C-72.05473578 471.56600772 -59.90758061 471.55477139 -47.76038736 471.53965965 C-35.27223529 471.52468111 -22.78423156 471.53268558 -10.29610109 471.56027675 C-2.60187538 471.57642267 5.09188231 471.57379167 12.78607976 471.54680362 C18.68319992 471.52788526 24.57999528 471.54021257 30.47710609 471.56403923 C32.89217143 471.56881083 35.30728231 471.56334198 37.72229576 471.54680824 C41.02340159 471.52570054 44.32237913 471.54158067 47.62341309 471.56646729 C49.05149599 471.54404178 49.05149599 471.54404178 50.50842905 471.52116323 C57.4965256 471.63217202 61.95083538 473.7776329 67.25 478.3125 C71.83457499 483.67980731 71.97630365 488.90386441 71.76171875 495.859375 C70.9939892 501.04008431 69.07192918 504.73738817 65.25 508.3125 C59.27812003 512.53282018 54.65265462 512.8865011 47.44873047 512.8271637 C46.37119161 512.83410922 45.29365274 512.84105475 44.18346119 512.84821075 C40.57782521 512.86648605 36.97284679 512.85621422 33.3671875 512.84594727 C30.77968351 512.85300571 28.19218365 512.86175041 25.60469055 512.87205505 C19.30729919 512.89367806 13.01008868 512.89357169 6.71267241 512.88542951 C1.588999 512.87912122 -3.53462181 512.88027416 -8.65829468 512.88670158 C-9.38848613 512.88760324 -10.11867759 512.88850489 -10.87099606 512.88943387 C-12.35462436 512.89128517 -13.83825266 512.89314773 -15.32188094 512.89502143 C-29.23194047 512.91159617 -43.14189857 512.90288588 -57.051952 512.88603585 C-69.75142047 512.87136274 -82.45065183 512.88593405 -95.15008974 512.91480602 C-108.20996289 512.94427447 -121.2697269 512.95514917 -134.32963181 512.94562382 C-135.81014758 512.94460134 -137.29066338 512.94360673 -138.7711792 512.9426403 C-139.49949282 512.94216391 -140.22780645 512.94168752 -140.97819018 512.9411967 C-146.08586471 512.93904109 -151.19343499 512.94879179 -156.30108643 512.96341133 C-163.19589722 512.98287146 -170.09026327 512.97572924 -176.98505592 512.95121193 C-179.50724891 512.94622362 -182.02947561 512.94964186 -184.55164146 512.96236038 C-206.32133076 513.06339913 -222.99912955 510.1488384 -239.4296875 494.72265625 C-251.42309466 482.2648579 -256.23095421 466.79971455 -256.25415039 449.84057617 C-255.24879362 399.56882573 -221.55796305 346.31193311 -187.75 311.3125 C-187.15106934 310.69165527 -186.55213867 310.07081055 -185.93505859 309.43115234 C-178.27123497 301.52999741 -170.53001606 293.98483045 -161.75 287.3125 C-161.20972168 286.89581055 -160.66944336 286.47912109 -160.11279297 286.04980469 C-137.16513731 268.40963877 -111.87754047 255.25392599 -84.75 245.3125 C-84.75 244.6525 -84.75 243.9925 -84.75 243.3125 C-86.32980635 241.94593747 -87.96668653 240.64514868 -89.625 239.375 C-108.58866631 224.12636691 -121.92743327 202.5175129 -129.6875 179.625 C-129.95780029 178.83150146 -130.22810059 178.03800293 -130.5065918 177.22045898 C-134.78053643 163.80295337 -136.31268188 150.57195897 -136.1875 136.5625 C-136.18412628 135.82337372 -136.18075256 135.08424744 -136.17727661 134.32272339 C-135.93279712 97.19433816 -120.78898264 63.09131391 -94.47070312 36.94677734 C-78.73033494 21.99700086 -59.19249058 11.24472083 -38.5 4.9375 C-37.72132568 4.6988623 -36.94265137 4.46022461 -36.14038086 4.21435547 C-24.21612109 0.7783202 -12.36460908 -0.06996595 0 0 Z M-63.75 65.3125 C-64.62269531 66.116875 -65.49539062 66.92125 -66.39453125 67.75 C-84.17575747 84.81144645 -94.57489384 107.8386822 -95.09375 132.4753418 C-95.34366189 160.66267011 -86.57201049 183.91127492 -66.75 204.3125 C-48.51002153 222.6132784 -25.14612157 231.75245188 0.4375 231.875 C10.93248335 231.76858699 20.34567907 230.86968568 30.25 227.3125 C31.30703125 226.93867188 32.3640625 226.56484375 33.453125 226.1796875 C58.20688194 216.59554058 76.97253515 198.17894969 88.34521484 174.40234375 C98.50131105 150.9441183 98.11680508 123.6169538 88.9375 100 C78.0329964 75.69758497 59.13883957 56.34123997 34.20507812 46.50585938 C0.69311007 34.48974216 -37.46852626 40.88764528 -63.75 65.3125 Z " fill="#000000" transform="translate(255.75,-0.3125)"/>
<path d="M0 0 C4.84306592 2.99083375 8.27791887 6.45511198 10.234375 11.89453125 C10.78407822 16.6415828 10.70112284 21.3702557 10.625 26.140625 C10.61752893 27.52066728 10.61184009 28.90072025 10.60784912 30.28077698 C10.59266052 33.89283126 10.55343932 37.50423036 10.5090332 41.11602783 C10.46793267 44.80968363 10.44980677 48.5034465 10.4296875 52.19726562 C10.38693664 59.42998446 10.3187699 66.66216565 10.234375 73.89453125 C11.36950783 73.87454575 11.36950783 73.87454575 12.52757263 73.85415649 C19.69144795 73.73347418 26.85482413 73.64235386 34.019454 73.58365822 C37.70213444 73.55246615 41.38396862 73.51022199 45.06616211 73.44189453 C48.62592328 73.37625927 52.18487539 73.34073422 55.74519539 73.32526779 C57.75101059 73.3089354 59.75650434 73.26216697 61.76182556 73.2147522 C69.87699444 73.21178778 75.1841899 74.2912952 81.234375 79.89453125 C85.81894999 85.26183856 85.96067865 90.48589566 85.74609375 97.44140625 C84.76318766 104.07414658 81.72472006 107.98897258 76.5 111.98681641 C70.8060528 115.15496672 64.31101625 114.38605086 57.98828125 114.28515625 C56.60823897 114.27768518 55.228186 114.27199634 53.84812927 114.26800537 C50.23607499 114.25281677 46.62467589 114.21359557 43.01287842 114.16918945 C39.31922262 114.12808892 35.62545975 114.10996302 31.93164062 114.08984375 C24.69892179 114.04709289 17.4667406 113.97892615 10.234375 113.89453125 C10.24769867 114.65128647 10.26102234 115.40804169 10.27474976 116.18772888 C10.39543207 123.3516042 10.48655239 130.51498038 10.54524803 137.67961025 C10.5764401 141.36229069 10.61868426 145.04412487 10.68701172 148.72631836 C10.75264698 152.28607953 10.78817203 155.84503164 10.80363846 159.40535164 C10.81997085 161.41116684 10.86673928 163.41666059 10.91415405 165.42198181 C10.91711847 173.53715069 9.83761105 178.84434615 4.234375 184.89453125 C-1.13293231 189.47910624 -6.35698941 189.6208349 -13.3125 189.40625 C-19.94524033 188.42334391 -23.86006633 185.38487631 -27.85791016 180.16015625 C-31.02606047 174.46620905 -30.25714461 167.9711725 -30.15625 161.6484375 C-30.14877893 160.26839522 -30.14309009 158.88834225 -30.13909912 157.50828552 C-30.12391052 153.89623124 -30.08468932 150.28483214 -30.0402832 146.67303467 C-29.99918267 142.97937887 -29.98105677 139.285616 -29.9609375 135.59179688 C-29.91818664 128.35907804 -29.8500199 121.12689685 -29.765625 113.89453125 C-30.90075783 113.91451675 -30.90075783 113.91451675 -32.05882263 113.93490601 C-39.22269795 114.05558832 -46.38607413 114.14670864 -53.550704 114.20540428 C-57.23338444 114.23659635 -60.91521862 114.27884051 -64.59741211 114.34716797 C-68.15717328 114.41280323 -71.71612539 114.44832828 -75.27644539 114.46379471 C-77.28226059 114.4801271 -79.28775434 114.52689553 -81.29307556 114.5743103 C-89.40824444 114.57727472 -94.7154399 113.4977673 -100.765625 107.89453125 C-105.35019999 102.52722394 -105.49192865 97.30316684 -105.27734375 90.34765625 C-104.29443766 83.71491592 -101.25597006 79.80008992 -96.03125 75.80224609 C-90.3373028 72.63409578 -83.84226625 73.40301164 -77.51953125 73.50390625 C-76.13948897 73.51137732 -74.759436 73.51706616 -73.37937927 73.52105713 C-69.76732499 73.53624573 -66.15592589 73.57546693 -62.54412842 73.61987305 C-58.85047262 73.66097358 -55.15670975 73.67909948 -51.46289062 73.69921875 C-44.23017179 73.74196961 -36.9979906 73.81013635 -29.765625 73.89453125 C-29.77894867 73.13777603 -29.79227234 72.38102081 -29.80599976 71.60133362 C-29.92668207 64.4374583 -30.01780239 57.27408212 -30.07649803 50.10945225 C-30.1076901 46.42677181 -30.14993426 42.74493763 -30.21826172 39.06274414 C-30.28389698 35.50298297 -30.31942203 31.94403086 -30.33488846 28.38371086 C-30.35122085 26.37789566 -30.39798928 24.37240191 -30.44540405 22.36708069 C-30.44836847 14.25191181 -29.36886105 8.94471635 -23.765625 2.89453125 C-17.29271618 -2.6344117 -7.84970384 -3.13766411 0 0 Z " fill="#000000" transform="translate(426.765625,323.10546875)"/>
</svg>
